<svg width="164" height="164" viewBox="0 0 164 164" fill="none" xmlns="http://www.w3.org/2000/svg">
<path d="M80.6684 0.125671H83.5446C83.9856 0.125671 84.4266 0.279066 84.8676 0.317415C87.3411 0.489983 89.8146 0.566681 92.2689 0.854295C97.6308 1.51101 102.912 2.71242 108.03 4.43989C122.931 9.37193 136.076 18.5324 145.861 30.8046C156.946 44.4242 163.258 61.3041 163.827 78.8554C163.857 79.2806 163.914 79.7034 164 80.1209V83.7832C164 84.1284 163.866 84.4735 163.827 84.7995C163.712 86.5827 163.636 88.3659 163.482 90.1299C163.089 94.3432 162.325 98.5137 161.201 102.593C156.83 119.696 146.968 134.892 133.129 145.85C119.537 156.891 102.696 163.162 85.1936 163.702C84.8101 163.702 84.4074 163.817 84.0239 163.874H79.959C79.5947 163.874 79.2304 163.74 78.866 163.702C77.2554 163.587 75.6256 163.51 74.0149 163.376C69.1691 162.962 64.3771 162.063 59.7109 160.691C43.2396 156.111 28.6536 146.407 18.0643 132.985C7.06429 119.378 0.833419 102.538 0.328035 85.0487C0.284259 84.6558 0.22026 84.2654 0.136292 83.8791L0.136292 80.0442C0.210634 79.7344 0.268241 79.4207 0.30886 79.1047C0.30886 77.9926 0.423906 76.8805 0.500604 75.7492C0.78431 71.611 1.42585 67.5051 2.41804 63.4776C5.3456 50.4435 11.519 38.3605 20.3652 28.3503C27.6764 19.8369 36.6861 12.9454 46.8165 8.11795C56.947 3.29046 67.9746 0.633485 79.192 0.317415C79.6714 0.29824 80.1315 0.125671 80.6684 0.125671ZM114.703 111.854V111.663L114.108 111.452C108.862 109.809 104.201 106.686 100.686 102.459C96.4106 97.5081 94.0203 91.2064 93.937 84.6652C93.822 77.6666 93.937 70.6488 93.937 63.5735C93.944 62.8801 93.8927 62.1874 93.7837 61.5027C93.3527 59.6913 92.2776 58.0985 90.7588 57.0215C89.24 55.9444 87.3813 55.4566 85.5293 55.6491C83.6774 55.8416 81.9587 56.7011 80.6938 58.0675C79.429 59.4339 78.7043 61.2137 78.6551 63.075C78.6551 69.2683 78.6551 75.4424 78.6551 81.6357C78.5965 83.8766 78.757 86.1179 79.1345 88.3275C79.9915 93.7645 82.4595 98.8196 86.2194 102.839C89.9794 106.859 94.8585 109.659 100.226 110.877C104.884 111.931 109.67 112.299 114.434 111.969L114.703 111.854ZM19.1764 85.5664H19.3106C19.3685 85.5054 19.4141 85.4338 19.4448 85.3555C20.2732 81.0827 22.2495 77.1161 25.1615 73.8813C28.0735 70.6466 31.8114 68.2659 35.974 66.9946C40.1366 65.7234 44.5668 65.6096 48.7892 66.6655C53.0116 67.7214 56.8667 69.9071 59.941 72.9881C60.2144 73.2783 60.5314 73.5242 60.8805 73.7167C62.0248 74.3273 63.3072 74.6322 64.6038 74.602C65.9004 74.5718 67.1673 74.2074 68.2818 73.5441C69.3366 72.9119 70.2279 72.0404 70.8838 71.0001C71.5396 69.9599 71.9416 68.7799 72.0573 67.5556C72.1731 66.3313 71.9992 65.0969 71.5499 63.9522C71.1005 62.8075 70.3883 61.7845 69.4706 60.9658C66.0977 57.5448 61.9617 54.9723 57.4022 53.4591C52.8426 51.9459 47.9892 51.5352 43.2402 52.2606C37.3246 53.0315 31.8267 55.7265 27.5939 59.9304C24.5866 62.8092 22.2443 66.3101 20.7308 70.1884C19.2172 74.0666 18.5689 78.2286 18.8313 82.3835C18.8696 83.4573 19.0613 84.4927 19.1764 85.5664ZM95.1642 89.4013C95.1541 89.5481 95.1541 89.6955 95.1642 89.8423C96.0129 93.8176 97.7052 97.5643 100.127 100.829C102.548 104.094 105.642 106.801 109.2 108.767C112.833 111.109 117.204 112.025 121.471 111.337C126.032 110.62 130.35 108.803 134.052 106.044C137.753 103.284 140.727 99.665 142.717 95.4987C144.53 92.0379 145.422 88.1681 145.305 84.2626C145.305 81.5782 145.305 78.8938 145.305 76.1902C145.305 75.9217 145.305 75.6533 145.305 75.3082C145.19 75.404 145.132 75.4232 145.113 75.4616C145.054 75.5794 145.003 75.7011 144.96 75.8259C143.434 81.4773 140.192 86.5156 135.68 90.245C130.723 94.5985 124.368 97.0276 117.771 97.0902C114.259 97.0735 110.75 96.8559 107.263 96.4383C104.962 96.2038 102.736 95.4867 100.73 94.3336C98.7246 93.1805 96.9849 91.6175 95.6244 89.7464C95.4812 89.6127 95.3272 89.4908 95.1642 89.3821V89.4013ZM48.6665 67.5617V67.37C48.4733 67.3056 48.2742 67.2607 48.0721 67.2358C45.2867 66.5941 42.4061 66.4771 39.5779 66.8906C36.1201 67.361 32.817 68.6209 29.9243 70.5727C27.0316 72.5244 24.6268 75.1157 22.8962 78.146C21.5599 80.1479 20.6934 82.4261 20.3613 84.81C20.0293 87.194 20.2404 89.6222 20.9788 91.9131C22.3601 95.9713 24.702 99.6354 27.8048 102.593C31.6106 106.631 36.4522 109.546 41.8013 111.02C47.1504 112.494 52.8017 112.471 58.1386 110.953C58.301 110.896 58.4557 110.819 58.5988 110.723C58.5029 110.723 58.4646 110.57 58.4262 110.57H57.7935C55.9312 110.497 54.0746 110.318 52.2329 110.033C48.6329 109.24 45.262 107.634 42.3784 105.338C39.4947 103.041 37.1748 100.116 35.5962 96.7845C34.0176 93.4534 33.2222 89.8052 33.2709 86.1192C33.3196 82.4333 34.2111 78.8074 35.8772 75.5191C36.8142 73.514 38.2259 71.7677 39.99 70.4312C41.7541 69.0948 43.8174 68.2086 46.0013 67.8494C46.9025 67.6768 47.7845 67.6384 48.6665 67.5617ZM34.4775 82.5752C34.3433 82.5752 34.2857 82.5752 34.2666 82.7095C34.2175 82.7988 34.185 82.8962 34.1707 82.9971C33.9882 85.2496 33.9882 87.5131 34.1707 89.7656C34.7089 93.9273 36.3844 97.86 39.0128 101.131C41.6413 104.402 45.1209 106.885 49.0691 108.307C52.7812 109.867 56.8764 110.274 60.823 109.477C64.932 108.391 68.5784 106.003 71.2155 102.67C72.1292 101.643 72.7502 100.389 73.0133 99.0398C73.2764 97.6905 73.172 96.2953 72.7111 95.0002C72.2965 93.469 71.4632 92.0836 70.3048 90.9998C69.1464 89.9159 67.7088 89.1765 66.1535 88.8644C64.6455 88.472 63.0557 88.5297 61.5802 89.0307C60.1048 89.5316 58.8083 90.4536 57.851 91.683C57.573 92.0057 57.2649 92.3011 56.9306 92.5651C55.5749 93.69 54.0014 94.5228 52.3087 95.0111C50.6161 95.4994 48.8408 95.6328 47.0942 95.4028C44.0373 95.1325 41.1562 93.8568 38.9012 91.7753C36.6463 89.6938 35.1445 86.9238 34.6309 83.8983C34.6437 83.5276 34.5925 83.0865 34.4775 82.5752ZM119.688 73.5058C119.688 70.0352 119.688 66.5647 119.688 63.1133C119.671 61.8112 119.333 60.5334 118.704 59.3932C118.075 58.2529 117.175 57.2854 116.082 56.5762C114.99 55.8671 113.74 55.4382 112.442 55.3276C111.145 55.217 109.84 55.428 108.644 55.9421C107.138 56.5576 105.862 57.627 104.992 59.0017C104.123 60.3763 103.704 61.9878 103.793 63.6118C103.793 70.0352 103.793 76.4586 103.793 82.7862C103.801 83.4273 103.846 84.0675 103.927 84.7036C104.169 86.7039 105.165 88.5366 106.711 89.8285C108.257 91.1204 110.238 91.7742 112.249 91.6569C114.261 91.5396 116.152 90.6599 117.538 89.197C118.923 87.7342 119.699 85.7981 119.707 83.7832C119.707 80.4661 119.688 77.0147 119.688 73.5441V73.5058ZM116.927 96.3232V96.515C117.073 96.5408 117.222 96.5408 117.368 96.515C118.96 96.3616 120.551 96.2657 122.123 95.9781C128.519 94.7585 134.305 91.3865 138.519 86.4226C142.733 81.4588 145.121 75.2022 145.286 68.693C145.286 66.7756 145.286 64.8582 145.286 62.7873C144.976 60.9885 144.035 59.3591 142.632 58.1918C141.229 57.0245 139.455 56.396 137.63 56.4191C135.805 56.4422 134.048 57.1154 132.675 58.3178C131.302 59.5203 130.402 61.173 130.138 62.9791C130.138 70.1503 130.138 77.3215 130.138 84.4927C130.188 85.9912 129.78 87.4692 128.969 88.7302C126.584 92.3897 122.884 94.9918 118.634 95.9973C118.078 96.1506 117.502 96.2082 116.927 96.3232Z" fill="#F56B2A"/>
</svg>
