<svg width="78" height="78" viewBox="0 0 78 78" fill="none" xmlns="http://www.w3.org/2000/svg">
<path d="M38.3337 0H39.7028C39.9127 0 40.1226 0.0730166 40.3326 0.0912708C41.5099 0.173414 42.6873 0.209923 43.8556 0.346829C46.4079 0.65943 48.9217 1.23131 51.3581 2.05359C58.451 4.40127 64.7078 8.76168 69.3658 14.6033C74.6424 21.0863 77.6467 29.1213 77.9179 37.4758C77.9318 37.6782 77.9593 37.8794 78 38.0782V39.8214C78 39.9857 77.9361 40.15 77.9179 40.3052C77.8631 41.154 77.8266 42.0028 77.7536 42.8425C77.5662 44.848 77.2027 46.8332 76.6674 48.7751C74.587 56.9161 69.8929 64.1496 63.3054 69.3658C56.8355 74.6209 48.819 77.6063 40.4877 77.8631C40.3052 77.8631 40.1135 77.9179 39.931 77.9452H37.996C37.8226 77.9452 37.6492 77.8813 37.4758 77.8631C36.7091 77.8083 35.9333 77.7718 35.1666 77.7079C32.86 77.5109 30.579 77.0828 28.3578 76.4301C20.5174 74.2496 13.5744 69.6305 8.53382 63.2415C3.29777 56.7648 0.331836 48.7488 0.0912708 40.4238C0.0704335 40.2368 0.0399695 40.051 0 39.8671L0 38.0417C0.0353876 37.8942 0.0628085 37.7449 0.0821437 37.5944C0.0821437 37.0651 0.136906 36.5357 0.173414 35.9972C0.30846 34.0274 0.613837 32.073 1.08612 30.1559C2.47966 23.9516 5.41825 18.2 9.62907 13.4351C13.1092 9.38264 17.3979 6.10228 22.22 3.80437C27.0422 1.50646 32.2914 0.241722 37.6309 0.0912708C37.8591 0.0821437 38.0782 0 38.3337 0ZM54.5343 53.1835V53.0922L54.2513 52.9918C51.754 52.2098 49.5355 50.7234 47.8624 48.7112C45.8271 46.3545 44.6893 43.3549 44.6497 40.2413C44.5949 36.9099 44.6497 33.5694 44.6497 30.2015C44.653 29.8715 44.6285 29.5417 44.5766 29.2158C44.3715 28.3535 43.8598 27.5954 43.1368 27.0827C42.4138 26.57 41.5291 26.3378 40.6475 26.4294C39.766 26.5211 38.9479 26.9302 38.3458 27.5806C37.7437 28.231 37.3988 29.0782 37.3754 29.9642C37.3754 32.9122 37.3754 35.8512 37.3754 38.7992C37.3475 39.8659 37.4239 40.9327 37.6036 41.9846C38.0115 44.5726 39.1863 46.9788 40.976 48.8922C42.7658 50.8057 45.0883 52.1383 47.6433 52.718C49.8603 53.22 52.1388 53.3953 54.4065 53.2382L54.5343 53.1835ZM9.06319 40.6703H9.12708C9.15465 40.6412 9.17635 40.6071 9.19097 40.5699C9.58529 38.536 10.526 36.6478 11.9121 35.1081C13.2983 33.5683 15.0775 32.4351 17.059 31.83C19.0404 31.2249 21.1492 31.1707 23.159 31.6733C25.1689 32.1759 27.004 33.2163 28.4674 34.6829C28.5975 34.821 28.7484 34.9381 28.9146 35.0297C29.4592 35.3204 30.0697 35.4655 30.6869 35.4511C31.3041 35.4367 31.9071 35.2633 32.4376 34.9476C32.9397 34.6466 33.364 34.2318 33.6762 33.7366C33.9884 33.2414 34.1797 32.6798 34.2348 32.097C34.2899 31.5142 34.2071 30.9267 33.9933 30.3818C33.7794 29.8369 33.4403 29.3499 33.0035 28.9602C31.398 27.3318 29.4292 26.1073 27.2589 25.387C25.0885 24.6667 22.7782 24.4712 20.5177 24.8165C17.7018 25.1835 15.0848 26.4663 13.07 28.4674C11.6385 29.8377 10.5235 31.5041 9.80307 33.3502C9.08262 35.1963 8.77404 37.1774 8.8989 39.1552C8.91716 39.6663 9.00843 40.1591 9.06319 40.6703ZM45.2338 42.4957C45.229 42.5656 45.229 42.6357 45.2338 42.7056C45.6378 44.5978 46.4433 46.3813 47.5959 47.9354C48.7485 49.4896 50.2213 50.7781 51.9148 51.714C53.6442 52.8289 55.7248 53.2645 57.7561 52.937C59.9272 52.5958 61.9825 51.7311 63.7444 50.4176C65.5064 49.1041 66.922 47.3813 67.8689 45.3981C68.7323 43.7507 69.1567 41.9087 69.1011 40.0496C69.1011 38.7718 69.1011 37.494 69.1011 36.2071C69.1011 36.0793 69.1011 35.9516 69.1011 35.7873C69.0463 35.8329 69.019 35.842 69.0098 35.8603C68.9817 35.9164 68.9573 35.9743 68.9368 36.0337C68.2106 38.7238 66.6671 41.1221 64.5193 42.8973C62.1599 44.9696 59.1348 46.1258 55.9946 46.1556C54.3228 46.1477 52.6529 46.0441 50.993 45.8453C49.8975 45.7337 48.8378 45.3923 47.8832 44.8435C46.9286 44.2946 46.1004 43.5506 45.4528 42.66C45.3847 42.5963 45.3114 42.5383 45.2338 42.4865V42.4957ZM23.1006 32.0999V32.0087C23.0087 31.978 22.9139 31.9566 22.8177 31.9448C21.4918 31.6393 20.1207 31.5836 18.7744 31.7805C17.1285 32.0044 15.5562 32.6041 14.1792 33.5331C12.8023 34.4622 11.6576 35.6957 10.8338 37.1381C10.1978 38.091 9.78528 39.1754 9.62723 40.3102C9.46918 41.445 9.56965 42.6008 9.92113 43.6913C10.5787 45.623 11.6934 47.3671 13.1704 48.7751C14.9819 50.697 17.2865 52.0846 19.8328 52.7863C22.379 53.4881 25.069 53.4771 27.6094 52.7545C27.6867 52.7273 27.7603 52.6905 27.8285 52.645C27.7828 52.645 27.7646 52.572 27.7463 52.572H27.4451C26.5587 52.5374 25.6749 52.4521 24.7983 52.3164C23.0846 51.9391 21.4801 51.1746 20.1075 50.0815C18.7348 48.9885 17.6305 47.5958 16.8791 46.0101C16.1277 44.4245 15.7491 42.6879 15.7723 40.9334C15.7954 39.1789 16.2198 37.4529 17.0129 35.8877C17.4589 34.9333 18.1308 34.102 18.9706 33.4658C19.8103 32.8297 20.7925 32.4078 21.832 32.2368C22.2609 32.1547 22.6808 32.1364 23.1006 32.0999ZM16.3466 39.2464C16.2827 39.2464 16.2553 39.2464 16.2462 39.3103C16.2228 39.3528 16.2074 39.3992 16.2006 39.4472C16.1137 40.5194 16.1137 41.5969 16.2006 42.6691C16.4567 44.6501 17.2543 46.5221 18.5054 48.0792C19.7566 49.6363 21.4129 50.8182 23.2923 51.495C25.0592 52.2374 27.0086 52.4314 28.8872 52.0517C30.8431 51.535 32.5788 50.3981 33.8341 48.8116C34.269 48.3227 34.5646 47.7259 34.6898 47.0837C34.8151 46.4414 34.7654 45.7773 34.546 45.1608C34.3486 44.4319 33.952 43.7725 33.4006 43.2566C32.8492 42.7406 32.1649 42.3886 31.4245 42.2401C30.7067 42.0533 29.95 42.0808 29.2476 42.3192C28.5453 42.5577 27.9282 42.9966 27.4725 43.5818C27.3402 43.7354 27.1935 43.876 27.0344 44.0016C26.3891 44.5371 25.6401 44.9335 24.8344 45.166C24.0287 45.3984 23.1836 45.4619 22.3522 45.3524C20.8971 45.2237 19.5257 44.6165 18.4523 43.6257C17.3789 42.6349 16.6641 41.3164 16.4196 39.8762C16.4257 39.6997 16.4014 39.4898 16.3466 39.2464ZM56.9073 34.9293C56.9073 33.2773 56.9073 31.6253 56.9073 29.9824C56.8991 29.3626 56.7382 28.7544 56.4388 28.2117C56.1395 27.6689 55.7108 27.2083 55.191 26.8708C54.6711 26.5332 54.076 26.3291 53.4583 26.2764C52.8407 26.2238 52.2197 26.3242 51.6501 26.5689C50.9335 26.8619 50.3259 27.371 49.9121 28.0253C49.4982 28.6796 49.2986 29.4467 49.341 30.2198C49.341 33.2773 49.341 36.3349 49.341 39.3468C49.3452 39.652 49.3665 39.9567 49.4049 40.2595C49.5202 41.2117 49.9941 42.0841 50.7302 42.699C51.4662 43.314 52.409 43.6252 53.3665 43.5694C54.324 43.5135 55.2242 43.0948 55.8837 42.3984C56.5433 41.7021 56.9126 40.7805 56.9165 39.8214C56.9165 38.2425 56.9073 36.5996 56.9073 34.9476V34.9293ZM55.593 45.7905V45.8818C55.6625 45.8941 55.7335 45.8941 55.803 45.8818C56.5605 45.8088 57.318 45.7632 58.0665 45.6263C61.111 45.0457 63.8651 43.4406 65.8709 41.0778C67.8768 38.715 69.0134 35.7368 69.092 32.6384C69.092 31.7257 69.092 30.813 69.092 29.8273C68.9446 28.971 68.4967 28.1954 67.8288 27.6398C67.1608 27.0842 66.3166 26.785 65.4478 26.796C64.5791 26.807 63.7427 27.1274 63.089 27.6998C62.4353 28.2721 62.0072 29.0589 61.8816 29.9186C61.8816 33.3321 61.8816 36.7456 61.8816 40.1591C61.9051 40.8724 61.711 41.576 61.3248 42.1762C60.19 43.9182 58.4285 45.1568 56.4053 45.6354C56.1407 45.7084 55.8668 45.7358 55.593 45.7905Z" fill="#F56B2A"/>
</svg>
