<svg width="104" height="82" viewBox="0 0 104 82" fill="none" xmlns="http://www.w3.org/2000/svg">
<path d="M44.3397 44.1731L42.5719 45.9409V45.9409L44.3397 44.1731ZM59.6603 44.1731L61.4281 45.9409V45.9409L59.6603 44.1731ZM8.66667 5.58337H95.3333V0.583374H8.66667V5.58337ZM98.25 8.50004V73.5001H103.25V8.50004H98.25ZM95.3333 76.4167H8.66667V81.4167H95.3333V76.4167ZM5.75 73.5001V8.50004H0.75V73.5001H5.75ZM8.66667 76.4167C7.05584 76.4167 5.75 75.1109 5.75 73.5001H0.75C0.75 77.8723 4.29441 81.4167 8.66667 81.4167V76.4167ZM98.25 73.5001C98.25 75.1109 96.9442 76.4167 95.3333 76.4167V81.4167C99.7056 81.4167 103.25 77.8723 103.25 73.5001H98.25ZM8.66667 0.583374C6.48123 0.583374 4.49864 1.47222 3.06874 2.90211L6.60427 6.43765C7.13482 5.9071 7.86056 5.58337 8.66667 5.58337V0.583374ZM3.06874 2.90211C1.63884 4.33201 0.75 6.31461 0.75 8.50004H5.75C5.75 7.69394 6.07372 6.9682 6.60427 6.43765L3.06874 2.90211ZM95.3333 5.58337C96.1394 5.58337 96.8652 5.9071 97.3957 6.43764L100.931 2.90212C99.5014 1.47221 97.5188 0.583374 95.3333 0.583374V5.58337ZM97.3957 6.43764C97.9263 6.9682 98.25 7.69394 98.25 8.50004H103.25C103.25 6.3146 102.361 4.33201 100.931 2.90212L97.3957 6.43764ZM42.5719 45.9409C47.7789 51.1479 56.2211 51.1479 61.4281 45.9409L57.8925 42.4054C54.6382 45.6597 49.3618 45.6597 46.1074 42.4054L42.5719 45.9409ZM3.06874 6.43764L42.5719 45.9409L46.1074 42.4054L6.60427 2.90212L3.06874 6.43764ZM61.4281 45.9409L100.931 6.43764L97.3957 2.90211L57.8925 42.4054L61.4281 45.9409Z" fill="#F56B2A"/>
</svg>
